HIERARCHY
ROOT joint_0
{
	OFFSET 0.000000 0.000000 0.000000
	CHANNELS 6 Xposition Yposition Zposition Zrotation Yrotation Xrotation 
	JOINT joint_1
	{
		OFFSET 0.000000 0.000000 0.000000
		CHANNELS 3 Zrotation Yrotation Xrotation
		JOINT joint_2
		{
			OFFSET 1.363060 -1.794630 0.839290
			CHANNELS 3 Zrotation Yrotation Xrotation
			JOINT joint_3
			{
				OFFSET 2.448110 -6.726130 0.000000
				CHANNELS 3 Zrotation Yrotation Xrotation
				JOINT joint_4
				{
					OFFSET 2.562200 -7.039590 0.000000
					CHANNELS 3 Zrotation Yrotation Xrotation
					JOINT joint_5
					{
						OFFSET 0.157640 -0.433110 2.322550
						CHANNELS 3 Zrotation Yrotation Xrotation
						End Site
						{
							OFFSET 0.000000 0.000000 0.000000
						}
					}
				}
			}
		}
	}
	JOINT joint_6
	{
		OFFSET 0.000000 0.000000 0.000000
		CHANNELS 3 Zrotation Yrotation Xrotation
		JOINT joint_7
		{
			OFFSET -1.305520 -1.794630 0.839290
			CHANNELS 3 Zrotation Yrotation Xrotation
			JOINT joint_8
			{
				OFFSET -2.542530 -6.985550 0.000000
				CHANNELS 3 Zrotation Yrotation Xrotation
				JOINT joint_9
				{
					OFFSET -2.568260 -7.056230 0.000000
					CHANNELS 3 Zrotation Yrotation Xrotation
					JOINT joint_10
					{
						OFFSET -0.164730 -0.452590 2.363150
						CHANNELS 3 Zrotation Yrotation Xrotation
						End Site
						{
							OFFSET 0.000000 0.000000 0.000000
						}
					}
				}
			}
		}
	}
	JOINT joint_11
	{
		OFFSET 0.000000 0.000000 0.000000
		CHANNELS 3 Zrotation Yrotation Xrotation
		JOINT joint_12
		{
			OFFSET 0.028270 2.035590 -0.193380
			CHANNELS 3 Zrotation Yrotation Xrotation
			JOINT joint_13
			{
				OFFSET 0.056720 2.048850 -0.042750
				CHANNELS 3 Zrotation Yrotation Xrotation
				JOINT joint_14
				{
					OFFSET 0.000000 0.000000 0.000000
					CHANNELS 3 Zrotation Yrotation Xrotation
					JOINT joint_15
					{
						OFFSET -0.054170 1.746240 0.172020
						CHANNELS 3 Zrotation Yrotation Xrotation
						JOINT joint_16
						{
							OFFSET 0.104070 1.761360 -0.123970
							CHANNELS 3 Zrotation Yrotation Xrotation
							End Site
							{
								OFFSET 0.000000 0.000000 0.000000
							}
						}
					}
				}
				JOINT joint_17
				{
					OFFSET 0.000000 0.000000 0.000000
					CHANNELS 3 Zrotation Yrotation Xrotation
					JOINT joint_18
					{
						OFFSET 3.362410 1.200890 -0.311210
						CHANNELS 3 Zrotation Yrotation Xrotation
						JOINT joint_19
						{
							OFFSET 4.983000 -0.000000 -0.000000
							CHANNELS 3 Zrotation Yrotation Xrotation
							JOINT joint_20
							{
								OFFSET 3.483560 -0.000000 -0.000000
								CHANNELS 3 Zrotation Yrotation Xrotation
								JOINT joint_21
								{
									OFFSET 0.000000 0.000000 0.000000
									CHANNELS 3 Zrotation Yrotation Xrotation
									JOINT joint_22
									{
										OFFSET 0.715260 -0.000000 -0.000000
										CHANNELS 3 Zrotation Yrotation Xrotation
										End Site
										{
											OFFSET 0.000000 0.000000 0.000000
										}
									}
								}
								JOINT joint_23
								{
									OFFSET 0.000000 0.000000 0.000000
									CHANNELS 3 Zrotation Yrotation Xrotation
									End Site
									{
										OFFSET 0.000000 0.000000 0.000000
									}
								}
							}
						}
					}
				}
				JOINT joint_24
				{
					OFFSET 0.000000 0.000000 0.000000
					CHANNELS 3 Zrotation Yrotation Xrotation
					JOINT joint_25
					{
						OFFSET -3.136600 1.374050 -0.404650
						CHANNELS 3 Zrotation Yrotation Xrotation
						JOINT joint_26
						{
							OFFSET -5.241900 -0.000000 -0.000000
							CHANNELS 3 Zrotation Yrotation Xrotation
							JOINT joint_27
							{
								OFFSET -3.444170 -0.000000 -0.000000
								CHANNELS 3 Zrotation Yrotation Xrotation
								JOINT joint_28
								{
									OFFSET 0.000000 0.000000 0.000000
									CHANNELS 3 Zrotation Yrotation Xrotation
									JOINT joint_29
									{
										OFFSET -0.622530 -0.000000 -0.000000
										CHANNELS 3 Zrotation Yrotation Xrotation
										End Site
										{
											OFFSET 0.000000 0.000000 0.000000
										}
									}
								}
								JOINT joint_30
								{
									OFFSET 0.000000 0.000000 0.000000
									CHANNELS 3 Zrotation Yrotation Xrotation
									End Site
									{
										OFFSET 0.000000 0.000000 0.000000
									}
								}
							}
						}
					}
				}
			}
		}
	}
}
MOTION
Frames: 6
Frame Time: 0.041667
9.372200 17.869300 -17.319800 -3.231600 -7.597000 -2.016800 0.000000 0.000000 0.000000 -13.810200 2.500200 3.350200 1.128100 6.746200 18.965600 0.822900 0.740200 -17.423700 0.059800 -1.577900 -4.340500 0.000000 0.000000 0.000000 22.612400 4.586400 1.003100 -1.950100 -8.761300 25.051500 -0.673400 -4.265200 -17.633400 -0.043400 -1.345300 3.699400 1.173000 -0.395100 2.301900 2.703900 -0.462700 0.003000 2.131500 -0.231800 -1.274500 -6.707900 -3.765300 -9.328200 -3.013200 -3.233500 27.837700 -0.318400 -2.557300 10.556000 0.000000 0.000000 0.000000 -59.189700 -43.605500 29.661100 154.407300 -36.803700 -111.357500 0.000000 0.000000 -10.119500 38.942700 -13.733500 -10.860500 -7.125000 0.000000 0.000000 7.720900 12.653500 -5.897100 0.000000 0.000000 0.000000 87.391700 1.133600 15.035600 -10.966100 18.236200 -1.765300 0.000000 0.000000 -7.558900 -18.645700 -20.026800 6.591600 7.125000 0.000000 0.000000 9.815400 -50.762800 -1.405400 
9.372800 17.866600 -17.319200 -3.100900 -7.588300 -2.063800 0.000000 0.000000 0.000000 -13.968200 2.522900 3.435700 1.117400 6.715200 18.874300 0.836600 0.690900 -17.546900 0.051800 -1.468400 -4.038500 0.000000 0.000000 0.000000 22.448500 4.502500 0.992600 -1.962600 -8.787800 25.133800 -0.679900 -4.202900 -17.664500 -0.042300 -1.326900 3.648800 1.091800 -0.349200 2.299900 2.600600 -0.407400 0.094800 2.068300 -0.204200 -1.181000 -6.639600 -3.859000 -9.387900 -2.835200 -3.430000 27.573000 -0.286000 -2.612700 10.472300 0.000000 0.000000 0.000000 -59.173500 -44.056700 29.675500 154.347200 -36.863800 -111.321500 0.000000 0.000000 -10.123500 38.854200 -13.803700 -10.880100 -7.125000 0.000000 0.000000 7.651100 12.585400 -5.853800 0.000000 0.000000 0.000000 87.570500 1.146800 15.241100 -11.021100 18.320500 -1.782500 0.000000 0.000000 -8.659500 -19.016900 -20.007200 6.725300 7.125000 0.000000 0.000000 9.446500 -50.803900 -1.361400 
9.369200 17.865800 -17.321500 -3.209500 -7.535400 -2.086200 0.000000 0.000000 0.000000 -13.821800 2.504100 3.507500 1.110900 6.696200 18.818500 0.834200 0.750500 -17.545300 0.071200 -1.721100 -4.735600 0.000000 0.000000 0.000000 22.634900 4.558700 1.041000 -1.975500 -8.814800 25.217800 -0.676200 -4.396800 -17.748100 -0.039100 -1.275700 3.507800 1.153300 -0.341400 2.409300 2.626700 -0.391900 0.091500 2.061100 -0.196700 -1.246400 -6.807400 -3.913600 -9.290600 -2.521800 -3.571400 27.392300 -0.157900 -2.653900 10.398800 0.000000 0.000000 0.000000 -59.399700 -44.454100 30.046200 154.287000 -36.923900 -111.285300 0.000000 0.000000 -10.247900 39.064500 -14.670400 -11.615800 -7.125000 0.000000 0.000000 7.640700 11.473800 -6.023200 0.000000 0.000000 0.000000 87.658300 1.125600 15.514600 -10.915500 18.158600 -1.749500 0.000000 0.000000 -9.764200 -19.789600 -19.523500 6.856800 7.125000 0.000000 0.000000 8.534900 -50.434000 -1.150300 
9.372600 17.859700 -17.326000 -2.956100 -7.383200 -2.199400 0.000000 0.000000 0.000000 -14.124400 2.327400 3.658700 1.108500 6.689300 18.798000 0.839000 0.798800 -17.613600 0.081500 -1.841200 -5.067000 0.000000 0.000000 0.000000 22.329300 4.385600 1.073100 -1.985400 -8.835700 25.282700 -0.691500 -4.337100 -17.876800 -0.042000 -1.322000 3.635200 0.860800 -0.391700 2.578100 2.593200 -0.463000 0.085400 2.194900 -0.230400 -1.343300 -6.937500 -3.870000 -9.199800 -2.359600 -3.536100 27.348200 -0.071600 -2.631100 10.370400 0.000000 0.000000 0.000000 -59.538400 -44.589900 30.345600 154.216500 -36.994100 -111.243000 0.000000 0.000000 -9.919300 39.661700 -15.659500 -12.614200 -7.125000 0.000000 0.000000 7.850600 10.119000 -6.411300 0.000000 0.000000 0.000000 87.663900 1.188000 14.847100 -10.643000 17.739000 -1.665500 0.000000 0.000000 -8.581500 -19.855600 -19.534400 6.885000 7.125000 0.000000 0.000000 8.474100 -50.455900 -1.146600 
9.373300 17.853600 -17.331700 -2.911000 -7.352700 -2.268800 0.000000 0.000000 0.000000 -14.188900 2.225800 3.726300 1.112300 6.700300 18.830500 0.849700 0.759800 -17.708800 0.067700 -1.678500 -4.618100 0.000000 0.000000 0.000000 22.292500 4.366000 1.126900 -1.988900 -8.842900 25.305000 -0.691500 -4.436300 -17.940000 -0.035000 -1.208100 3.321700 0.745100 -0.422200 2.680700 2.637400 -0.504700 0.109200 2.308000 -0.250400 -1.373700 -7.084700 -3.792100 -9.039800 -2.215100 -3.452600 27.181000 0.020300 -2.586600 10.282000 0.000000 0.000000 0.000000 -59.650300 -44.630900 30.304800 154.155300 -37.054900 -111.206100 0.000000 0.000000 -9.165600 39.804000 -14.910900 -12.102000 -7.125000 0.000000 0.000000 8.076200 11.009300 -6.451300 0.000000 0.000000 0.000000 87.615200 1.189100 14.682800 -10.555400 17.603500 -1.638900 0.000000 0.000000 -7.494300 -20.083000 -21.200300 7.531700 7.125000 0.000000 0.000000 8.804100 -52.208800 -1.572400 
9.368900 17.853000 -17.335000 -3.043400 -7.380700 -2.275000 0.000000 0.000000 0.000000 -14.011100 2.299200 3.631700 1.121300 6.726600 18.907800 0.853000 0.649600 -17.699100 0.056300 -1.531200 -4.211600 0.000000 0.000000 0.000000 22.529900 4.602800 1.192400 -1.987500 -8.840000 25.296100 -0.679800 -4.724900 -18.003200 -0.031300 -1.142600 3.141300 0.768700 -0.419000 2.703300 2.740100 -0.498500 0.130200 2.400400 -0.247400 -1.364400 -7.242900 -3.795800 -8.924900 -2.090200 -3.474900 26.957900 0.094000 -2.592600 10.185000 0.000000 0.000000 0.000000 -59.788300 -44.921200 30.189800 154.211000 -36.999600 -111.239700 0.000000 0.000000 -9.060900 39.215300 -13.438900 -10.738700 -7.125000 0.000000 0.000000 7.949200 12.960500 -6.023400 0.000000 0.000000 0.000000 87.493900 1.069600 15.058000 -10.478100 17.483900 -1.615600 0.000000 0.000000 -7.568700 -20.336300 -20.707900 7.466500 7.125000 0.000000 0.000000 8.382700 -51.746500 -1.400900 
